<svg id="Capa_1" data-name="Capa 1" xmlns="http://www.w3.org/2000/svg" viewBox="0 0 990 995.34"><defs><style>.cls-1{fill:#fff;}</style></defs><title>LogoWhite</title><path class="cls-1" d="M1034.31,598.09C1005.55,845.57,795.19,1037.67,540,1037.67S74.45,845.57,45.69,598.09h355.2a150.78,150.78,0,0,0,278.22,0Z" transform="translate(-45 -42.33)"/><path class="cls-1" d="M624.78,540a84.7,84.7,0,1,1-5.14-29.14A84.58,84.58,0,0,1,624.78,540Z" transform="translate(-45 -42.33)"/><path class="cls-1" d="M1035,488.19H681.58a150.79,150.79,0,0,0-283.16,0H45C70.9,237.69,282.64,42.33,540,42.33S1009.1,237.69,1035,488.19Z" transform="translate(-45 -42.33)"/></svg>