<svg version="1.1" id="Capa_1" xmlns="http://www.w3.org/2000/svg" xmlns:xlink="http://www.w3.org/1999/xlink" x="0px" y="0px"
	 viewBox="0 0 1080 1080" style="enable-background:new 0 0 1080 1080;" xml:space="preserve">
	<style type="text/css">
		.st0{fill:#232323;}
	</style>
	<g>
		<g>
			<path class="st0" d="M1034.31,598.09c-28.76,247.48-239.12,439.58-494.31,439.58S74.45,845.57,45.69,598.09h355.2
				c22.75,54.4,76.46,92.63,139.11,92.63s116.36-38.23,139.11-92.63H1034.31z"/>
		</g>
		<g>
			<path class="st0" d="M624.78,540c0,11.57-2.32,22.62-6.53,32.67c-12.8,30.6-43,52.11-78.25,52.11s-65.45-21.51-78.25-52.11
				c-4.21-10.05-6.53-21.1-6.53-32.67c0-10.24,1.81-20.05,5.13-29.14c11.9-32.47,43.06-55.64,79.64-55.64s67.74,23.17,79.64,55.64
				C622.97,519.95,624.78,529.76,624.78,540z"/>
		</g>
		<g>
			<path class="st0" d="M1035,488.19H681.58c-21.13-57.71-76.53-98.91-141.58-98.91s-120.45,41.2-141.58,98.91H45
				C70.9,237.69,282.64,42.33,540,42.33S1009.1,237.69,1035,488.19z"/>
		</g>
	</g>
</svg>
